<?xml version="1.0" encoding="UTF-8"?>
<svg width="65px" height="64px" viewBox="0 0 65 64" version="1.1" xmlns="http://www.w3.org/2000/svg" xmlns:xlink="http://www.w3.org/1999/xlink">
    <!-- Generator: Sketch 55.2 (78181) - https://sketchapp.com -->
    <title>Profile Deactive</title>
    <desc>Created with Sketch.</desc>
    <g id="Page-1" stroke="none" stroke-width="1" fill="none" fill-rule="evenodd">
        <g id="Leaderboard" transform="translate(-1085.000000, -2084.000000)" fill="#B2B2B2">
            <g id="Tab-bar" transform="translate(0.000000, 2061.000000)">
                <g id="Profile" transform="translate(993.600000, 0.000000)">
                    <path d="M123.998711,23 C106.354694,23 92,37.3559834 92,55 C92,72.6440166 106.354694,87 123.998711,87 C141.641439,87 155.997422,72.6440166 155.997422,55 C155.997422,37.3559834 141.644017,23 123.998711,23 L123.998711,23 Z M142.449591,72.6362831 L142.449591,71.3744311 C142.449591,67.0101502 137.407339,65.4183349 134.708342,64.2634632 C133.731341,63.8471422 131.889475,62.9603657 129.999919,62.0362106 C129.361904,61.7242921 128.787046,60.8929391 128.714867,60.1827446 L128.506062,58.115318 C129.952229,56.7683973 131.255327,54.8930197 131.475732,52.8023926 L131.801829,52.8023926 C132.314819,52.8023926 132.798163,52.4182946 132.87421,51.947839 L133.385911,48.78612 C133.454223,48.1107262 132.816208,47.7008499 132.299352,47.7008499 C132.31353,47.6338261 132.32513,47.5655134 132.331574,47.5088009 C132.397309,47.1285697 132.437266,46.7612277 132.463044,46.404197 C132.495267,46.116768 132.521046,45.8190277 132.535224,45.510976 C132.589358,44.0184074 132.33673,42.7127321 131.917831,41.9819149 C131.492488,40.9598018 130.848028,39.967334 129.950941,39.1166472 C127.451726,36.7501913 124.552946,35.828614 122.080799,37.7310589 C120.39747,37.4397632 118.397068,38.209248 116.952189,39.9015991 C116.163371,40.8257542 115.672292,41.8826681 115.462198,42.922826 C115.274016,43.5711524 115.148991,44.3561042 115.118057,45.2055021 C115.084545,46.1502799 115.177347,47.0151448 115.351351,47.715028 C114.858984,47.7459621 114.366617,48.1506827 114.366617,48.7886978 L114.877029,51.9504169 C114.953075,52.4208724 115.43642,52.8049704 115.94941,52.8049704 L116.241995,52.8049704 C116.706006,55.0657349 117.907278,56.9217787 119.236154,58.2158537 L119.035083,60.2149676 C118.962903,60.9238732 118.388045,61.7526483 117.748741,62.0684336 C115.921054,62.9603657 114.120433,63.818786 113.042897,64.2634632 C110.503726,65.3100657 105.301647,67.0101502 105.301647,71.3744311 L105.301647,72.3617433 C101.063681,67.7976799 98.4497523,61.7075362 98.4497523,55.0038668 C98.4497523,40.9134007 109.913401,29.4497523 124.003867,29.4497523 C138.095622,29.4497523 149.557981,40.9134007 149.557981,55.0038668 C149.552826,61.8390059 146.83965,68.0425746 142.449591,72.6362831 L142.449591,72.6362831 Z" id="Profile-Deactive"></path>
                </g>
            </g>
        </g>
    </g>
</svg>